<svg width="1076" height="261" viewBox="0 0 1076 261" fill="none" xmlns="http://www.w3.org/2000/svg">
<path d="M373.08 132.079C373.08 137.947 372.083 143.354 370.09 148.3C368.134 153.209 365.347 157.435 361.73 160.979C358.15 164.522 353.832 167.29 348.775 169.283C343.719 171.276 338.108 172.273 331.945 172.273H301.052V91.9401H331.945C338.108 91.9401 343.719 92.9366 348.775 94.9297C353.832 96.9228 358.15 99.7094 361.73 103.29C365.347 106.833 368.134 111.059 370.09 115.968C372.083 120.877 373.08 126.247 373.08 132.079ZM356.028 132.079C356.028 127.871 355.474 124.088 354.367 120.729C353.26 117.37 351.673 114.528 349.606 112.203C347.539 109.878 345.01 108.088 342.021 106.833C339.068 105.578 335.709 104.951 331.945 104.951H317.772V159.262H331.945C335.709 159.262 339.068 158.653 342.021 157.435C345.01 156.18 347.539 154.39 349.606 152.065C351.673 149.703 353.26 146.842 354.367 143.484C355.474 140.125 356.028 136.323 356.028 132.079ZM398.041 115.193V172.273H382.761V115.193H398.041ZM399.868 98.9712C399.868 100.263 399.61 101.463 399.093 102.57C398.576 103.677 397.875 104.655 396.989 105.504C396.14 106.353 395.125 107.017 393.944 107.497C392.8 107.977 391.564 108.217 390.235 108.217C388.98 108.217 387.78 107.977 386.636 107.497C385.529 107.017 384.551 106.353 383.702 105.504C382.853 104.655 382.17 103.677 381.653 102.57C381.174 101.463 380.934 100.263 380.934 98.9712C380.934 97.6794 381.174 96.4799 381.653 95.3726C382.17 94.2284 382.853 93.2319 383.702 92.383C384.551 91.5341 385.529 90.8697 386.636 90.3899C387.78 89.9101 388.98 89.6701 390.235 89.6701C391.564 89.6701 392.8 89.9101 393.944 90.3899C395.125 90.8697 396.14 91.5341 396.989 92.383C397.875 93.2319 398.576 94.2284 399.093 95.3726C399.61 96.4799 399.868 97.6794 399.868 98.9712ZM432.341 141.601C435.478 141.601 437.785 140.808 439.261 139.221C440.774 137.634 441.531 135.585 441.531 133.075C441.531 130.455 440.774 128.406 439.261 126.93C437.785 125.417 435.478 124.66 432.341 124.66C429.203 124.66 426.896 125.417 425.42 126.93C423.944 128.406 423.206 130.455 423.206 133.075C423.206 135.548 423.944 137.597 425.42 139.221C426.933 140.808 429.24 141.601 432.341 141.601ZM446.79 174.598C446.79 173.601 446.477 172.789 445.849 172.162C445.222 171.535 444.373 171.036 443.303 170.667C442.269 170.298 441.033 170.04 439.593 169.892C438.154 169.708 436.622 169.578 434.998 169.505C433.374 169.394 431.695 169.302 429.96 169.228C428.225 169.154 426.527 169.025 424.866 168.84C423.575 169.615 422.504 170.538 421.655 171.608C420.843 172.642 420.437 173.823 420.437 175.152C420.437 176.074 420.64 176.923 421.046 177.698C421.489 178.473 422.209 179.138 423.206 179.691C424.202 180.245 425.512 180.67 427.136 180.965C428.76 181.297 430.79 181.463 433.226 181.463C435.736 181.463 437.858 181.297 439.593 180.965C441.328 180.633 442.73 180.153 443.801 179.525C444.871 178.935 445.628 178.215 446.071 177.366C446.551 176.517 446.79 175.595 446.79 174.598ZM461.96 117.075V122.667C461.96 123.553 461.702 124.254 461.185 124.771C460.705 125.287 459.893 125.675 458.749 125.933L454.098 126.875C454.726 128.683 455.04 130.621 455.04 132.688C455.04 135.53 454.449 138.095 453.268 140.383C452.124 142.635 450.537 144.572 448.507 146.196C446.477 147.784 444.078 149.02 441.309 149.906C438.541 150.755 435.552 151.179 432.341 151.179C430.311 151.179 428.41 151.013 426.638 150.681C425.088 151.641 424.313 152.692 424.313 153.837C424.313 154.907 424.83 155.682 425.863 156.162C426.933 156.642 428.317 156.992 430.015 157.214C431.75 157.398 433.706 157.528 435.884 157.601C438.098 157.638 440.331 157.749 442.583 157.934C444.871 158.118 447.104 158.45 449.282 158.93C451.496 159.373 453.453 160.13 455.15 161.2C456.885 162.233 458.269 163.618 459.303 165.352C460.373 167.087 460.908 169.32 460.908 172.051C460.908 174.598 460.281 177.071 459.026 179.47C457.771 181.869 455.944 184.01 453.545 185.892C451.183 187.775 448.267 189.288 444.797 190.432C441.328 191.576 437.379 192.148 432.95 192.148C428.557 192.148 424.737 191.724 421.489 190.875C418.278 190.063 415.602 188.956 413.462 187.553C411.358 186.187 409.789 184.6 408.756 182.792C407.722 180.983 407.205 179.101 407.205 177.145C407.205 174.598 407.981 172.439 409.531 170.667C411.081 168.896 413.222 167.475 415.953 166.404C414.513 165.592 413.351 164.54 412.465 163.248C411.616 161.92 411.192 160.203 411.192 158.1C411.192 156.402 411.801 154.612 413.019 152.729C414.274 150.847 416.193 149.278 418.776 148.023C415.861 146.473 413.554 144.406 411.856 141.823C410.158 139.202 409.309 136.157 409.309 132.688C409.309 129.846 409.881 127.281 411.026 124.992C412.207 122.704 413.831 120.766 415.898 119.179C417.964 117.555 420.4 116.319 423.206 115.47C426.011 114.621 429.056 114.196 432.341 114.196C437.213 114.196 441.512 115.156 445.24 117.075H461.96ZM485.628 115.193V172.273H470.348V115.193H485.628ZM487.455 98.9712C487.455 100.263 487.197 101.463 486.68 102.57C486.163 103.677 485.462 104.655 484.576 105.504C483.727 106.353 482.712 107.017 481.531 107.497C480.387 107.977 479.151 108.217 477.822 108.217C476.567 108.217 475.367 107.977 474.223 107.497C473.116 107.017 472.138 106.353 471.289 105.504C470.44 104.655 469.757 103.677 469.24 102.57C468.761 101.463 468.521 100.263 468.521 98.9712C468.521 97.6794 468.761 96.4799 469.24 95.3726C469.757 94.2284 470.44 93.2319 471.289 92.383C472.138 91.5341 473.116 90.8697 474.223 90.3899C475.367 89.9101 476.567 89.6701 477.822 89.6701C479.151 89.6701 480.387 89.9101 481.531 90.3899C482.712 90.8697 483.727 91.5341 484.576 92.383C485.462 93.2319 486.163 94.2284 486.68 95.3726C487.197 96.4799 487.455 97.6794 487.455 98.9712ZM518.377 173.159C515.794 173.159 513.505 172.789 511.512 172.051C509.519 171.276 507.84 170.187 506.474 168.785C505.109 167.382 504.075 165.684 503.374 163.691C502.673 161.698 502.322 159.447 502.322 156.937V126.155H496.952C496.14 126.155 495.438 125.896 494.848 125.38C494.294 124.863 494.017 124.088 494.017 123.054V117.075L503.152 115.414L506.253 100.632C506.659 98.9712 507.784 98.1408 509.63 98.1408H517.602V115.525H532.329V126.155H517.602V155.94C517.602 157.528 517.971 158.782 518.71 159.705C519.485 160.628 520.573 161.089 521.976 161.089C522.714 161.089 523.342 161.015 523.858 160.868C524.375 160.683 524.818 160.499 525.187 160.314C525.556 160.093 525.888 159.908 526.184 159.761C526.516 159.576 526.848 159.484 527.18 159.484C527.623 159.484 527.992 159.594 528.287 159.816C528.583 160 528.878 160.333 529.173 160.812L533.768 168.12C531.665 169.781 529.284 171.036 526.627 171.885C523.969 172.734 521.219 173.159 518.377 173.159ZM570.356 148.411C566.628 148.596 563.528 148.928 561.055 149.408C558.582 149.85 556.607 150.441 555.131 151.179C553.692 151.917 552.658 152.766 552.031 153.726C551.44 154.649 551.145 155.664 551.145 156.771C551.145 158.985 551.754 160.554 552.972 161.477C554.227 162.4 555.962 162.861 558.176 162.861C560.723 162.861 562.919 162.418 564.764 161.532C566.647 160.609 568.511 159.188 570.356 157.269V148.411ZM539.242 123.11C542.6 120.083 546.31 117.832 550.37 116.355C554.43 114.842 558.822 114.086 563.546 114.086C566.942 114.086 569.969 114.639 572.626 115.746C575.32 116.854 577.59 118.404 579.436 120.397C581.318 122.353 582.758 124.697 583.754 127.428C584.751 130.159 585.249 133.149 585.249 136.397V172.273H578.273C576.834 172.273 575.726 172.07 574.951 171.664C574.213 171.258 573.604 170.409 573.124 169.117L571.906 165.463C570.467 166.718 569.064 167.825 567.699 168.785C566.37 169.744 564.986 170.556 563.546 171.221C562.107 171.848 560.557 172.328 558.896 172.66C557.272 172.992 555.445 173.159 553.415 173.159C550.905 173.159 548.617 172.826 546.55 172.162C544.483 171.498 542.693 170.52 541.179 169.228C539.703 167.899 538.559 166.257 537.747 164.3C536.935 162.344 536.529 160.093 536.529 157.546C536.529 155.442 537.064 153.338 538.134 151.235C539.205 149.131 541.032 147.23 543.615 145.532C546.236 143.797 549.705 142.376 554.024 141.269C558.379 140.125 563.823 139.479 570.356 139.331V136.397C570.356 132.817 569.599 130.196 568.086 128.535C566.573 126.838 564.395 125.989 561.553 125.989C559.449 125.989 557.696 126.247 556.294 126.764C554.891 127.244 553.655 127.779 552.584 128.369C551.551 128.923 550.573 129.458 549.65 129.975C548.727 130.455 547.657 130.695 546.439 130.695C545.369 130.695 544.464 130.436 543.726 129.92C543.025 129.366 542.434 128.72 541.955 127.982L539.242 123.11ZM612.567 89.7255V172.273H597.287V89.7255H612.567ZM686.557 158.985C689.251 158.985 691.668 158.543 693.809 157.657C695.95 156.734 697.758 155.442 699.235 153.781C700.711 152.12 701.837 150.109 702.612 147.747C703.387 145.384 703.775 142.727 703.775 139.774V91.9401H720.384V139.774C720.384 144.646 719.59 149.131 718.003 153.228C716.453 157.288 714.22 160.794 711.304 163.747C708.388 166.699 704.845 169.006 700.674 170.667C696.504 172.328 691.798 173.159 686.557 173.159C681.315 173.159 676.591 172.328 672.383 170.667C668.213 169.006 664.669 166.699 661.754 163.747C658.838 160.794 656.586 157.288 654.999 153.228C653.449 149.131 652.674 144.646 652.674 139.774V91.9401H669.283V139.774C669.283 142.727 669.671 145.384 670.446 147.747C671.221 150.109 672.347 152.12 673.823 153.781C675.299 155.442 677.108 156.734 679.249 157.657C681.389 158.543 683.825 158.985 686.557 158.985ZM746.406 121.836C747.551 120.729 748.732 119.714 749.95 118.791C751.205 117.869 752.515 117.075 753.88 116.411C755.283 115.746 756.778 115.23 758.365 114.861C759.989 114.492 761.742 114.307 763.624 114.307C766.725 114.307 769.475 114.842 771.874 115.913C774.273 116.983 776.284 118.478 777.908 120.397C779.569 122.316 780.806 124.605 781.618 127.262C782.467 129.92 782.891 132.835 782.891 136.01V172.273H767.666V136.01C767.666 132.835 766.928 130.381 765.451 128.646C763.975 126.875 761.797 125.989 758.919 125.989C756.778 125.989 754.766 126.45 752.884 127.373C751.002 128.296 749.211 129.587 747.514 131.248V172.273H732.233V115.193H741.645C743.564 115.193 744.838 116.079 745.465 117.85L746.406 121.836ZM816.318 141.601C819.455 141.601 821.762 140.808 823.238 139.221C824.751 137.634 825.508 135.585 825.508 133.075C825.508 130.455 824.751 128.406 823.238 126.93C821.762 125.417 819.455 124.66 816.318 124.66C813.18 124.66 810.874 125.417 809.397 126.93C807.921 128.406 807.183 130.455 807.183 133.075C807.183 135.548 807.921 137.597 809.397 139.221C810.91 140.808 813.217 141.601 816.318 141.601ZM830.768 174.598C830.768 173.601 830.454 172.789 829.826 172.162C829.199 171.535 828.35 171.036 827.28 170.667C826.246 170.298 825.01 170.04 823.57 169.892C822.131 169.708 820.599 169.578 818.975 169.505C817.351 169.394 815.672 169.302 813.937 169.228C812.202 169.154 810.504 169.025 808.844 168.84C807.552 169.615 806.481 170.538 805.632 171.608C804.82 172.642 804.414 173.823 804.414 175.152C804.414 176.074 804.617 176.923 805.023 177.698C805.466 178.473 806.186 179.138 807.183 179.691C808.179 180.245 809.489 180.67 811.113 180.965C812.737 181.297 814.767 181.463 817.203 181.463C819.713 181.463 821.836 181.297 823.57 180.965C825.305 180.633 826.708 180.153 827.778 179.525C828.848 178.935 829.605 178.215 830.048 177.366C830.528 176.517 830.768 175.595 830.768 174.598ZM845.937 117.075V122.667C845.937 123.553 845.679 124.254 845.162 124.771C844.682 125.287 843.87 125.675 842.726 125.933L838.076 126.875C838.703 128.683 839.017 130.621 839.017 132.688C839.017 135.53 838.426 138.095 837.245 140.383C836.101 142.635 834.514 144.572 832.484 146.196C830.454 147.784 828.055 149.02 825.287 149.906C822.518 150.755 819.529 151.179 816.318 151.179C814.288 151.179 812.387 151.013 810.615 150.681C809.065 151.641 808.29 152.692 808.29 153.837C808.29 154.907 808.807 155.682 809.84 156.162C810.91 156.642 812.295 156.992 813.992 157.214C815.727 157.398 817.683 157.528 819.861 157.601C822.075 157.638 824.308 157.749 826.56 157.934C828.848 158.118 831.081 158.45 833.259 158.93C835.473 159.373 837.43 160.13 839.127 161.2C840.862 162.233 842.246 163.618 843.28 165.352C844.35 167.087 844.885 169.32 844.885 172.051C844.885 174.598 844.258 177.071 843.003 179.47C841.748 181.869 839.921 184.01 837.522 185.892C835.16 187.775 832.244 189.288 828.774 190.432C825.305 191.576 821.356 192.148 816.927 192.148C812.534 192.148 808.714 191.724 805.466 190.875C802.255 190.063 799.579 188.956 797.439 187.553C795.335 186.187 793.766 184.6 792.733 182.792C791.699 180.983 791.183 179.101 791.183 177.145C791.183 174.598 791.958 172.439 793.508 170.667C795.058 168.896 797.199 167.475 799.93 166.404C798.491 165.592 797.328 164.54 796.442 163.248C795.593 161.92 795.169 160.203 795.169 158.1C795.169 156.402 795.778 154.612 796.996 152.729C798.251 150.847 800.17 149.278 802.754 148.023C799.838 146.473 797.531 144.406 795.833 141.823C794.135 139.202 793.286 136.157 793.286 132.688C793.286 129.846 793.858 127.281 795.003 124.992C796.184 122.704 797.808 120.766 799.875 119.179C801.942 117.555 804.378 116.319 807.183 115.47C809.988 114.621 813.033 114.196 816.318 114.196C821.19 114.196 825.49 115.156 829.217 117.075H845.937ZM888.283 130.03C886.844 128.369 885.275 127.207 883.578 126.542C881.917 125.878 880.145 125.546 878.263 125.546C876.417 125.546 874.738 125.896 873.225 126.598C871.711 127.299 870.401 128.406 869.294 129.92C868.223 131.396 867.393 133.297 866.802 135.622C866.212 137.947 865.917 140.715 865.917 143.927C865.917 147.101 866.156 149.795 866.636 152.01C867.116 154.224 867.799 156.014 868.685 157.38C869.607 158.746 870.715 159.742 872.007 160.37C873.298 160.96 874.738 161.255 876.325 161.255C879.019 161.255 881.271 160.72 883.079 159.65C884.925 158.579 886.659 157.066 888.283 155.11V130.03ZM903.564 89.7255V172.273H894.152C892.196 172.273 890.941 171.387 890.387 169.615L889.114 164.633C887.97 165.887 886.752 167.032 885.46 168.065C884.205 169.099 882.839 170.003 881.363 170.778C879.887 171.516 878.3 172.088 876.602 172.494C874.904 172.9 873.058 173.103 871.065 173.103C868.002 173.103 865.197 172.457 862.65 171.165C860.103 169.874 857.889 167.991 856.006 165.518C854.161 163.009 852.722 159.945 851.688 156.328C850.655 152.711 850.138 148.577 850.138 143.927C850.138 139.682 850.71 135.733 851.854 132.079C853.035 128.425 854.696 125.269 856.837 122.612C858.978 119.954 861.561 117.869 864.588 116.355C867.614 114.842 870.973 114.086 874.664 114.086C877.764 114.086 880.366 114.547 882.47 115.47C884.611 116.392 886.549 117.647 888.283 119.234V89.7255H903.564ZM942.018 114.307C946.3 114.307 950.194 114.99 953.7 116.355C957.206 117.721 960.214 119.677 962.724 122.224C965.234 124.734 967.172 127.797 968.537 131.414C969.903 135.031 970.586 139.11 970.586 143.65C970.586 148.19 969.903 152.286 968.537 155.94C967.172 159.558 965.234 162.639 962.724 165.186C960.214 167.733 957.206 169.689 953.7 171.055C950.194 172.42 946.3 173.103 942.018 173.103C937.7 173.103 933.769 172.42 930.226 171.055C926.719 169.689 923.711 167.733 921.202 165.186C918.692 162.639 916.736 159.558 915.333 155.94C913.967 152.286 913.285 148.19 913.285 143.65C913.285 139.11 913.967 135.031 915.333 131.414C916.736 127.797 918.692 124.734 921.202 122.224C923.711 119.677 926.719 117.721 930.226 116.355C933.769 114.99 937.7 114.307 942.018 114.307ZM942.018 161.643C946.374 161.643 949.603 160.148 951.707 157.158C953.811 154.132 954.863 149.647 954.863 143.705C954.863 137.8 953.811 133.352 951.707 130.362C949.603 127.336 946.374 125.823 942.018 125.823C937.552 125.823 934.267 127.336 932.164 130.362C930.06 133.352 929.008 137.8 929.008 143.705C929.008 149.647 930.06 154.132 932.164 157.158C934.267 160.148 937.552 161.643 942.018 161.643ZM980.18 172.273V115.193H989.592C991.511 115.193 992.785 116.079 993.412 117.85L994.298 121.56C995.295 120.526 996.31 119.567 997.343 118.681C998.413 117.795 999.558 117.038 1000.78 116.411C1001.99 115.746 1003.3 115.23 1004.71 114.861C1006.15 114.492 1007.7 114.307 1009.36 114.307C1012.86 114.307 1015.76 115.248 1018.05 117.131C1020.34 118.976 1022.07 121.449 1023.25 124.549C1024.18 122.741 1025.3 121.191 1026.63 119.899C1028 118.57 1029.47 117.5 1031.06 116.688C1032.68 115.876 1034.38 115.285 1036.15 114.916C1037.96 114.51 1039.77 114.307 1041.58 114.307C1044.79 114.307 1047.63 114.787 1050.1 115.746C1052.58 116.706 1054.64 118.127 1056.31 120.009C1058 121.855 1059.29 124.125 1060.18 126.819C1061.07 129.514 1061.51 132.577 1061.51 136.01V172.273H1046.23V136.01C1046.23 129.329 1043.37 125.989 1037.65 125.989C1036.36 125.989 1035.16 126.21 1034.05 126.653C1032.98 127.059 1032.02 127.687 1031.17 128.535C1030.36 129.384 1029.71 130.436 1029.23 131.691C1028.79 132.946 1028.57 134.386 1028.57 136.01V172.273H1013.29V136.01C1013.29 132.392 1012.57 129.827 1011.13 128.314C1009.73 126.764 1007.64 125.989 1004.87 125.989C1003.1 125.989 1001.42 126.413 999.834 127.262C998.284 128.074 996.826 129.218 995.461 130.695V172.273H980.18Z" fill="white"/>
<path d="M31.6685 78.213V183.483C31.6685 187.398 32.5385 191.226 34.3655 194.706C37.3235 200.448 43.2395 208.017 54.4625 211.062C73.5155 216.195 96.8315 222.372 96.8315 222.372C96.8315 222.372 104.922 223.677 115.362 222.372C115.362 222.372 197.925 213.237 210.801 202.797C210.801 202.797 225.852 191.226 225.678 179.829C225.504 168.432 225.678 92.046 225.678 92.046C225.678 92.046 226.461 59.421 202.623 56.724C175.74 52.896 115.449 43.674 115.449 43.674C115.449 43.674 104.313 42.978 90.6545 46.284C80.2145 48.807 57.9425 54.027 48.1985 56.289C44.1965 57.246 40.5425 59.421 37.8455 62.553C34.8005 66.207 31.6685 71.514 31.6685 78.213Z" stroke="white" stroke-width="6.09"/>
<path d="M54.4627 156.078C65.4178 156.078 74.2987 144.354 74.2987 129.891C74.2987 115.428 65.4178 103.704 54.4627 103.704C43.5076 103.704 34.6267 115.428 34.6267 129.891C34.6267 144.354 43.5076 156.078 54.4627 156.078Z" fill="white"/>
<path d="M53.0705 111.36V95.439C53.0705 93.09 51.6785 90.828 49.4165 89.958C49.3295 89.958 49.3295 89.871 49.2425 89.871C45.8495 88.479 42.1955 87.174 42.1955 87.174C42.1955 87.174 39.3245 85.26 45.5885 82.302C51.8525 79.344 57.2465 76.473 57.2465 76.473C57.2465 76.473 60.9005 74.994 54.3755 72.384C52.9835 71.862 51.7655 71.34 50.8955 70.992C48.7205 70.035 47.3285 67.947 47.2415 65.598L46.9805 50.286" stroke="white" stroke-width="5.22" stroke-miterlimit="10" stroke-linecap="round"/>
<path d="M46.1102 55.941C46.1102 55.941 46.1102 55.941 50.5472 55.68C54.9842 55.419 56.3762 51.069 55.6802 44.805C54.8972 38.541 50.9822 36.192 46.4582 36.627C41.9342 37.062 40.0202 38.106 39.7592 47.154C39.4982 56.202 46.6322 55.941 46.6322 55.941" fill="white"/>
<path d="M94.7428 187.572L94.8298 80.04C94.8298 79.17 94.9168 78.387 95.1778 77.604C96.3958 72.993 101.181 58.551 115.014 58.551C131.457 58.551 196.359 68.382 196.359 68.382C196.359 68.382 213.063 72.384 213.585 91.263C214.02 108.054 213.672 157.47 213.585 168.084C213.585 169.911 213.324 171.738 212.802 173.478C211.41 178.263 207.669 186.702 198.099 190.965C184.353 196.968 120.93 204.537 120.93 204.537C120.93 204.537 93.5248 208.974 94.7428 187.572Z" fill="white"/>
<path d="M145.204 160.602C146.335 167.562 152.164 172.608 158.602 172.695C165.997 172.869 172.609 166.518 172.696 158.427" stroke="#6564AE" stroke-width="3.045" stroke-miterlimit="10" stroke-linecap="round"/>
<path d="M123.279 97.875C123.279 97.875 122.757 88.827 135.024 89.001C147.378 89.175 146.508 97.353 146.508 97.353C146.508 97.353 151.119 136.851 143.028 140.853C136.851 143.898 132.501 143.028 132.501 143.028C132.501 143.028 124.41 142.854 124.149 136.155C123.888 129.456 123.279 97.875 123.279 97.875Z" fill="#6564AE"/>
<path d="M172.695 102.66C172.695 102.66 172.26 94.569 182.874 94.743C193.488 94.917 192.792 102.225 192.792 102.225C192.792 102.225 196.794 137.46 189.747 141.027C184.44 143.724 180.699 142.941 180.699 142.941C180.699 142.941 173.739 142.767 173.478 136.764C173.13 130.848 172.695 102.66 172.695 102.66Z" fill="#6564AE"/>
</svg>
