<svg width="571" height="207" viewBox="0 0 571 207" fill="none" xmlns="http://www.w3.org/2000/svg">
<path d="M69.7244 91H44.4444C43.431 91 42.6844 90.7867 42.2044 90.36C41.7777 89.88 41.5644 89.1333 41.5644 88.12V78.76C41.5644 77.7467 41.7777 77.0267 42.2044 76.6C42.6844 76.12 43.431 75.88 44.4444 75.88H65.9644C66.6577 75.88 67.1644 75.6667 67.4844 75.24C67.8577 74.76 68.0444 74.2 68.0444 73.56C68.0444 72.6533 67.8577 71.9867 67.4844 71.56C67.1644 71.1333 66.6577 70.8933 65.9644 70.84L53.9644 69.16C50.231 68.6267 47.2177 67.4 44.9244 65.48C42.6844 63.56 41.5644 60.36 41.5644 55.88V47.48C41.5644 42.9467 43.031 39.48 45.9644 37.08C48.8977 34.6267 52.951 33.4 58.1244 33.4H80.5244C81.5377 33.4 82.2577 33.64 82.6844 34.12C83.1644 34.5467 83.4044 35.2667 83.4044 36.28V45.8C83.4044 46.8133 83.1644 47.56 82.6844 48.04C82.2577 48.4667 81.5377 48.68 80.5244 48.68H61.8844C61.191 48.68 60.6577 48.92 60.2844 49.4C59.911 49.8267 59.7244 50.3867 59.7244 51.08C59.7244 51.7733 59.911 52.36 60.2844 52.84C60.6577 53.32 61.191 53.5867 61.8844 53.64L73.8044 55.24C77.5377 55.7733 80.551 57 82.8444 58.92C85.1377 60.84 86.2844 64.04 86.2844 68.52V76.92C86.2844 81.4533 84.791 84.9467 81.8044 87.4C78.871 89.8 74.8444 91 69.7244 91Z" fill="#E2147E"/>
<path d="M69.7244 91H44.4444C43.431 91 42.6844 90.7867 42.2044 90.36C41.7777 89.88 41.5644 89.1333 41.5644 88.12V78.76C41.5644 77.7467 41.7777 77.0267 42.2044 76.6C42.6844 76.12 43.431 75.88 44.4444 75.88H65.9644C66.6577 75.88 67.1644 75.6667 67.4844 75.24C67.8577 74.76 68.0444 74.2 68.0444 73.56C68.0444 72.6533 67.8577 71.9867 67.4844 71.56C67.1644 71.1333 66.6577 70.8933 65.9644 70.84L53.9644 69.16C50.231 68.6267 47.2177 67.4 44.9244 65.48C42.6844 63.56 41.5644 60.36 41.5644 55.88V47.48C41.5644 42.9467 43.031 39.48 45.9644 37.08C48.8977 34.6267 52.951 33.4 58.1244 33.4H80.5244C81.5377 33.4 82.2577 33.64 82.6844 34.12C83.1644 34.5467 83.4044 35.2667 83.4044 36.28V45.8C83.4044 46.8133 83.1644 47.56 82.6844 48.04C82.2577 48.4667 81.5377 48.68 80.5244 48.68H61.8844C61.191 48.68 60.6577 48.92 60.2844 49.4C59.911 49.8267 59.7244 50.3867 59.7244 51.08C59.7244 51.7733 59.911 52.36 60.2844 52.84C60.6577 53.32 61.191 53.5867 61.8844 53.64L73.8044 55.24C77.5377 55.7733 80.551 57 82.8444 58.92C85.1377 60.84 86.2844 64.04 86.2844 68.52V76.92C86.2844 81.4533 84.791 84.9467 81.8044 87.4C78.871 89.8 74.8444 91 69.7244 91Z" fill="white"/>
<path d="M119.681 43.2L115.921 55.36H128.481L124.721 43.2C124.508 42.72 124.268 42.3733 124.001 42.16C123.788 41.9467 123.521 41.84 123.201 41.84H121.201C120.881 41.84 120.588 41.9467 120.321 42.16C120.108 42.3733 119.895 42.72 119.681 43.2ZM115.121 81.12C115.121 82.1333 114.881 82.88 114.401 83.36C113.975 83.7867 113.255 84 112.241 84H100.481C99.4679 84 98.7213 83.7867 98.2413 83.36C97.8146 82.88 97.6013 82.1333 97.6013 81.12V60C97.6013 58.4 97.8413 56.56 98.3213 54.48C98.8546 52.4 99.6546 49.9733 100.721 47.2L107.681 29.04C108.001 28.1333 108.481 27.4667 109.121 27.04C109.815 26.6133 110.695 26.4 111.761 26.4H133.281C134.295 26.4 135.121 26.6133 135.761 27.04C136.455 27.4667 136.961 28.1333 137.281 29.04L144.241 47.2C145.308 49.9733 146.081 52.4 146.561 54.48C147.095 56.56 147.361 58.4 147.361 60V81.12C147.361 82.1333 147.121 82.88 146.641 83.36C146.215 83.7867 145.495 84 144.481 84H132.401C131.335 84 130.535 83.7867 130.001 83.36C129.521 82.88 129.281 82.1333 129.281 81.12V69.92H115.121V81.12ZM138.161 23.2H127.121C126.215 23.2 125.548 22.9867 125.121 22.56C124.695 22.1333 124.481 21.4667 124.481 20.56V10.88C124.481 9.97333 124.695 9.30666 125.121 8.87999C125.548 8.45333 126.215 8.24 127.121 8.24H138.161C139.068 8.24 139.735 8.45333 140.161 8.87999C140.588 9.30666 140.801 9.97333 140.801 10.88V20.56C140.801 21.4667 140.588 22.1333 140.161 22.56C139.735 22.9867 139.068 23.2 138.161 23.2ZM117.521 23.2H106.481C105.575 23.2 104.881 22.9867 104.401 22.56C103.975 22.1333 103.761 21.4667 103.761 20.56V10.88C103.761 9.97333 103.975 9.30666 104.401 8.87999C104.881 8.45333 105.575 8.24 106.481 8.24H117.521C118.428 8.24 119.095 8.45333 119.521 8.87999C119.948 9.30666 120.161 9.97333 120.161 10.88V20.56C120.161 21.4667 119.948 22.1333 119.521 22.56C119.095 22.9867 118.428 23.2 117.521 23.2Z" fill="#E2147E"/>
<path d="M119.681 43.2L115.921 55.36H128.481L124.721 43.2C124.508 42.72 124.268 42.3733 124.001 42.16C123.788 41.9467 123.521 41.84 123.201 41.84H121.201C120.881 41.84 120.588 41.9467 120.321 42.16C120.108 42.3733 119.895 42.72 119.681 43.2ZM115.121 81.12C115.121 82.1333 114.881 82.88 114.401 83.36C113.975 83.7867 113.255 84 112.241 84H100.481C99.4679 84 98.7213 83.7867 98.2413 83.36C97.8146 82.88 97.6013 82.1333 97.6013 81.12V60C97.6013 58.4 97.8413 56.56 98.3213 54.48C98.8546 52.4 99.6546 49.9733 100.721 47.2L107.681 29.04C108.001 28.1333 108.481 27.4667 109.121 27.04C109.815 26.6133 110.695 26.4 111.761 26.4H133.281C134.295 26.4 135.121 26.6133 135.761 27.04C136.455 27.4667 136.961 28.1333 137.281 29.04L144.241 47.2C145.308 49.9733 146.081 52.4 146.561 54.48C147.095 56.56 147.361 58.4 147.361 60V81.12C147.361 82.1333 147.121 82.88 146.641 83.36C146.215 83.7867 145.495 84 144.481 84H132.401C131.335 84 130.535 83.7867 130.001 83.36C129.521 82.88 129.281 82.1333 129.281 81.12V69.92H115.121V81.12ZM138.161 23.2H127.121C126.215 23.2 125.548 22.9867 125.121 22.56C124.695 22.1333 124.481 21.4667 124.481 20.56V10.88C124.481 9.97333 124.695 9.30666 125.121 8.87999C125.548 8.45333 126.215 8.24 127.121 8.24H138.161C139.068 8.24 139.735 8.45333 140.161 8.87999C140.588 9.30666 140.801 9.97333 140.801 10.88V20.56C140.801 21.4667 140.588 22.1333 140.161 22.56C139.735 22.9867 139.068 23.2 138.161 23.2ZM117.521 23.2H106.481C105.575 23.2 104.881 22.9867 104.401 22.56C103.975 22.1333 103.761 21.4667 103.761 20.56V10.88C103.761 9.97333 103.975 9.30666 104.401 8.87999C104.881 8.45333 105.575 8.24 106.481 8.24H117.521C118.428 8.24 119.095 8.45333 119.521 8.87999C119.948 9.30666 120.161 9.97333 120.161 10.88V20.56C120.161 21.4667 119.948 22.1333 119.521 22.56C119.095 22.9867 118.428 23.2 117.521 23.2Z" fill="white"/>
<path d="M172.956 103H160.556C159.543 103 158.796 102.787 158.316 102.36C157.89 101.88 157.676 101.133 157.676 100.12V48.28C157.676 47.2667 157.89 46.5467 158.316 46.12C158.796 45.64 159.543 45.4 160.556 45.4H172.956C173.97 45.4 174.69 45.64 175.116 46.12C175.596 46.5467 175.836 47.2667 175.836 48.28V66.68H179.036L187.276 48.04C187.65 47.08 188.156 46.4133 188.796 46.04C189.436 45.6133 190.263 45.4 191.276 45.4H203.596C204.503 45.4 205.116 45.64 205.436 46.12C205.756 46.5467 205.73 47.1867 205.356 48.04L197.196 66.68C200.183 66.84 202.556 67.9067 204.316 69.88C206.13 71.8 207.036 74.36 207.036 77.56V100.12C207.036 101.133 206.796 101.88 206.316 102.36C205.89 102.787 205.17 103 204.156 103H191.836C190.823 103 190.076 102.787 189.596 102.36C189.17 101.88 188.956 101.133 188.956 100.12V84.52C188.956 83.6667 188.743 83 188.316 82.52C187.89 82.04 187.25 81.8 186.396 81.8H175.836V100.12C175.836 101.133 175.596 101.88 175.116 102.36C174.69 102.787 173.97 103 172.956 103Z" fill="#E2147E"/>
<path d="M172.956 103H160.556C159.543 103 158.796 102.787 158.316 102.36C157.89 101.88 157.676 101.133 157.676 100.12V48.28C157.676 47.2667 157.89 46.5467 158.316 46.12C158.796 45.64 159.543 45.4 160.556 45.4H172.956C173.97 45.4 174.69 45.64 175.116 46.12C175.596 46.5467 175.836 47.2667 175.836 48.28V66.68H179.036L187.276 48.04C187.65 47.08 188.156 46.4133 188.796 46.04C189.436 45.6133 190.263 45.4 191.276 45.4H203.596C204.503 45.4 205.116 45.64 205.436 46.12C205.756 46.5467 205.73 47.1867 205.356 48.04L197.196 66.68C200.183 66.84 202.556 67.9067 204.316 69.88C206.13 71.8 207.036 74.36 207.036 77.56V100.12C207.036 101.133 206.796 101.88 206.316 102.36C205.89 102.787 205.17 103 204.156 103H191.836C190.823 103 190.076 102.787 189.596 102.36C189.17 101.88 188.956 101.133 188.956 100.12V84.52C188.956 83.6667 188.743 83 188.316 82.52C187.89 82.04 187.25 81.8 186.396 81.8H175.836V100.12C175.836 101.133 175.596 101.88 175.116 102.36C174.69 102.787 173.97 103 172.956 103Z" fill="white"/>
<path d="M259.848 92H222.728C221.715 92 220.968 91.7867 220.488 91.36C220.061 90.88 219.848 90.1333 219.848 89.12V37.28C219.848 36.2667 220.061 35.5467 220.488 35.12C220.968 34.64 221.715 34.4 222.728 34.4H259.848C260.861 34.4 261.581 34.64 262.008 35.12C262.488 35.5467 262.728 36.2667 262.728 37.28V46.64C262.728 47.6533 262.488 48.4 262.008 48.88C261.581 49.3067 260.861 49.52 259.848 49.52H237.768V55.68H253.368C254.381 55.68 255.101 55.92 255.528 56.4C256.008 56.8267 256.248 57.5467 256.248 58.56V67.12C256.248 68.1333 256.008 68.88 255.528 69.36C255.101 69.7867 254.381 70 253.368 70H237.768V76.88H259.848C260.861 76.88 261.581 77.12 262.008 77.6C262.488 78.0267 262.728 78.7467 262.728 79.76V89.12C262.728 90.1333 262.488 90.88 262.008 91.36C261.581 91.7867 260.861 92 259.848 92Z" fill="#E2147E"/>
<path d="M259.848 92H222.728C221.715 92 220.968 91.7867 220.488 91.36C220.061 90.88 219.848 90.1333 219.848 89.12V37.28C219.848 36.2667 220.061 35.5467 220.488 35.12C220.968 34.64 221.715 34.4 222.728 34.4H259.848C260.861 34.4 261.581 34.64 262.008 35.12C262.488 35.5467 262.728 36.2667 262.728 37.28V46.64C262.728 47.6533 262.488 48.4 262.008 48.88C261.581 49.3067 260.861 49.52 259.848 49.52H237.768V55.68H253.368C254.381 55.68 255.101 55.92 255.528 56.4C256.008 56.8267 256.248 57.5467 256.248 58.56V67.12C256.248 68.1333 256.008 68.88 255.528 69.36C255.101 69.7867 254.381 70 253.368 70H237.768V76.88H259.848C260.861 76.88 261.581 77.12 262.008 77.6C262.488 78.0267 262.728 78.7467 262.728 79.76V89.12C262.728 90.1333 262.488 90.88 262.008 91.36C261.581 91.7867 260.861 92 259.848 92Z" fill="white"/>
<path d="M501.848 188H464.728C463.715 188 462.968 187.787 462.488 187.36C462.061 186.88 461.848 186.133 461.848 185.12V133.28C461.848 132.267 462.061 131.547 462.488 131.12C462.968 130.64 463.715 130.4 464.728 130.4H501.848C502.861 130.4 503.581 130.64 504.008 131.12C504.488 131.547 504.728 132.267 504.728 133.28V142.64C504.728 143.653 504.488 144.4 504.008 144.88C503.581 145.307 502.861 145.52 501.848 145.52H479.768V151.68H495.368C496.381 151.68 497.101 151.92 497.528 152.4C498.008 152.827 498.248 153.547 498.248 154.56V163.12C498.248 164.133 498.008 164.88 497.528 165.36C497.101 165.787 496.381 166 495.368 166H479.768V172.88H501.848C502.861 172.88 503.581 173.12 504.008 173.6C504.488 174.027 504.728 174.747 504.728 175.76V185.12C504.728 186.133 504.488 186.88 504.008 187.36C503.581 187.787 502.861 188 501.848 188Z" fill="#E2147E"/>
<path d="M501.848 188H464.728C463.715 188 462.968 187.787 462.488 187.36C462.061 186.88 461.848 186.133 461.848 185.12V133.28C461.848 132.267 462.061 131.547 462.488 131.12C462.968 130.64 463.715 130.4 464.728 130.4H501.848C502.861 130.4 503.581 130.64 504.008 131.12C504.488 131.547 504.728 132.267 504.728 133.28V142.64C504.728 143.653 504.488 144.4 504.008 144.88C503.581 145.307 502.861 145.52 501.848 145.52H479.768V151.68H495.368C496.381 151.68 497.101 151.92 497.528 152.4C498.008 152.827 498.248 153.547 498.248 154.56V163.12C498.248 164.133 498.008 164.88 497.528 165.36C497.101 165.787 496.381 166 495.368 166H479.768V172.88H501.848C502.861 172.88 503.581 173.12 504.008 173.6C504.488 174.027 504.728 174.747 504.728 175.76V185.12C504.728 186.133 504.488 186.88 504.008 187.36C503.581 187.787 502.861 188 501.848 188Z" fill="white"/>
<path d="M530.783 176H518.783C517.769 176 517.023 175.787 516.543 175.36C516.116 174.88 515.903 174.133 515.903 173.12V121.28C515.903 120.267 516.116 119.547 516.543 119.12C517.023 118.64 517.769 118.4 518.783 118.4H527.103C528.116 118.4 528.969 118.56 529.663 118.88C530.409 119.2 531.129 119.76 531.823 120.56L547.343 138.32V121.28C547.343 120.267 547.556 119.547 547.983 119.12C548.463 118.64 549.209 118.4 550.223 118.4H562.223C563.236 118.4 563.956 118.64 564.383 119.12C564.863 119.547 565.103 120.267 565.103 121.28V173.12C565.103 174.133 564.863 174.88 564.383 175.36C563.956 175.787 563.236 176 562.223 176H550.223C549.209 176 548.463 175.787 547.983 175.36C547.556 174.88 547.343 174.133 547.343 173.12V163.28L533.663 146.72V173.12C533.663 174.133 533.423 174.88 532.943 175.36C532.516 175.787 531.796 176 530.783 176Z" fill="#E2147E"/>
<path d="M530.783 176H518.783C517.769 176 517.023 175.787 516.543 175.36C516.116 174.88 515.903 174.133 515.903 173.12V121.28C515.903 120.267 516.116 119.547 516.543 119.12C517.023 118.64 517.769 118.4 518.783 118.4H527.103C528.116 118.4 528.969 118.56 529.663 118.88C530.409 119.2 531.129 119.76 531.823 120.56L547.343 138.32V121.28C547.343 120.267 547.556 119.547 547.983 119.12C548.463 118.64 549.209 118.4 550.223 118.4H562.223C563.236 118.4 563.956 118.64 564.383 119.12C564.863 119.547 565.103 120.267 565.103 121.28V173.12C565.103 174.133 564.863 174.88 564.383 175.36C563.956 175.787 563.236 176 562.223 176H550.223C549.209 176 548.463 175.787 547.983 175.36C547.556 174.88 547.343 174.133 547.343 173.12V163.28L533.663 146.72V173.12C533.663 174.133 533.423 174.88 532.943 175.36C532.516 175.787 531.796 176 530.783 176Z" fill="white"/>
<path d="M292.873 40.8V51.04H298.873C300.26 51.04 301.193 50.6933 301.673 50C302.153 49.2533 302.393 48.3467 302.393 47.28V44.56C302.393 43.4933 302.153 42.6133 301.673 41.92C301.193 41.1733 300.26 40.8 298.873 40.8H292.873ZM289.993 84H277.673C276.66 84 275.913 83.7867 275.433 83.36C275.007 82.88 274.793 82.1333 274.793 81.12V29.28C274.793 28.2667 275.007 27.5467 275.433 27.12C275.913 26.64 276.66 26.4 277.673 26.4H304.313C310.287 26.4 314.393 27.6533 316.633 30.16C318.927 32.6133 320.073 35.8133 320.073 39.76V43.44C320.073 45.68 319.727 47.6 319.033 49.2C318.393 50.7467 317.247 51.8667 315.593 52.56C318.473 52.88 320.793 54.0533 322.553 56.08C324.367 58.1067 325.273 60.8 325.273 64.16V81.12C325.273 82.1333 325.033 82.88 324.553 83.36C324.127 83.7867 323.407 84 322.393 84H309.993C308.98 84 308.233 83.7867 307.753 83.36C307.327 82.88 307.113 82.1333 307.113 81.12V68.88C307.113 67.7067 306.873 66.8533 306.393 66.32C305.967 65.7333 305.193 65.44 304.073 65.44H292.873V81.12C292.873 82.1333 292.633 82.88 292.153 83.36C291.727 83.7867 291.007 84 289.993 84Z" fill="#E2147E"/>
<path d="M292.873 40.8V51.04H298.873C300.26 51.04 301.193 50.6933 301.673 50C302.153 49.2533 302.393 48.3467 302.393 47.28V44.56C302.393 43.4933 302.153 42.6133 301.673 41.92C301.193 41.1733 300.26 40.8 298.873 40.8H292.873ZM289.993 84H277.673C276.66 84 275.913 83.7867 275.433 83.36C275.007 82.88 274.793 82.1333 274.793 81.12V29.28C274.793 28.2667 275.007 27.5467 275.433 27.12C275.913 26.64 276.66 26.4 277.673 26.4H304.313C310.287 26.4 314.393 27.6533 316.633 30.16C318.927 32.6133 320.073 35.8133 320.073 39.76V43.44C320.073 45.68 319.727 47.6 319.033 49.2C318.393 50.7467 317.247 51.8667 315.593 52.56C318.473 52.88 320.793 54.0533 322.553 56.08C324.367 58.1067 325.273 60.8 325.273 64.16V81.12C325.273 82.1333 325.033 82.88 324.553 83.36C324.127 83.7867 323.407 84 322.393 84H309.993C308.98 84 308.233 83.7867 307.753 83.36C307.327 82.88 307.113 82.1333 307.113 81.12V68.88C307.113 67.7067 306.873 66.8533 306.393 66.32C305.967 65.7333 305.193 65.44 304.073 65.44H292.873V81.12C292.873 82.1333 292.633 82.88 292.153 83.36C291.727 83.7867 291.007 84 289.993 84Z" fill="white"/>
<path d="M349.948 92H337.548C336.535 92 335.788 91.7867 335.308 91.36C334.882 90.88 334.668 90.1333 334.668 89.12V37.28C334.668 36.2667 334.882 35.5467 335.308 35.12C335.788 34.64 336.535 34.4 337.548 34.4H349.948C350.962 34.4 351.682 34.64 352.108 35.12C352.588 35.5467 352.828 36.2667 352.828 37.28V54.64H366.188V37.28C366.188 36.2667 366.402 35.5467 366.828 35.12C367.308 34.64 368.055 34.4 369.068 34.4H381.468C382.482 34.4 383.202 34.64 383.628 35.12C384.108 35.5467 384.348 36.2667 384.348 37.28V89.12C384.348 90.1333 384.108 90.88 383.628 91.36C383.202 91.7867 382.482 92 381.468 92H369.068C368.055 92 367.308 91.7867 366.828 91.36C366.402 90.88 366.188 90.1333 366.188 89.12V71.36H352.828V89.12C352.828 90.1333 352.588 90.88 352.108 91.36C351.682 91.7867 350.962 92 349.948 92Z" fill="#E2147E"/>
<path d="M349.948 92H337.548C336.535 92 335.788 91.7867 335.308 91.36C334.882 90.88 334.668 90.1333 334.668 89.12V37.28C334.668 36.2667 334.882 35.5467 335.308 35.12C335.788 34.64 336.535 34.4 337.548 34.4H349.948C350.962 34.4 351.682 34.64 352.108 35.12C352.588 35.5467 352.828 36.2667 352.828 37.28V54.64H366.188V37.28C366.188 36.2667 366.402 35.5467 366.828 35.12C367.308 34.64 368.055 34.4 369.068 34.4H381.468C382.482 34.4 383.202 34.64 383.628 35.12C384.108 35.5467 384.348 36.2667 384.348 37.28V89.12C384.348 90.1333 384.108 90.88 383.628 91.36C383.202 91.7867 382.482 92 381.468 92H369.068C368.055 92 367.308 91.7867 366.828 91.36C366.402 90.88 366.188 90.1333 366.188 89.12V71.36H352.828V89.12C352.828 90.1333 352.588 90.88 352.108 91.36C351.682 91.7867 350.962 92 349.948 92Z" fill="white"/>
<path d="M436.848 101H399.728C398.715 101 397.968 100.787 397.488 100.36C397.061 99.88 396.848 99.1333 396.848 98.12V46.28C396.848 45.2667 397.061 44.5467 397.488 44.12C397.968 43.64 398.715 43.4 399.728 43.4H436.848C437.861 43.4 438.581 43.64 439.008 44.12C439.488 44.5467 439.728 45.2667 439.728 46.28V55.64C439.728 56.6533 439.488 57.4 439.008 57.88C438.581 58.3067 437.861 58.52 436.848 58.52H414.768V64.68H430.368C431.381 64.68 432.101 64.92 432.528 65.4C433.008 65.8267 433.248 66.5467 433.248 67.56V76.12C433.248 77.1333 433.008 77.88 432.528 78.36C432.101 78.7867 431.381 79 430.368 79H414.768V85.88H436.848C437.861 85.88 438.581 86.12 439.008 86.6C439.488 87.0267 439.728 87.7467 439.728 88.76V98.12C439.728 99.1333 439.488 99.88 439.008 100.36C438.581 100.787 437.861 101 436.848 101Z" fill="#E2147E"/>
<path d="M436.848 101H399.728C398.715 101 397.968 100.787 397.488 100.36C397.061 99.88 396.848 99.1333 396.848 98.12V46.28C396.848 45.2667 397.061 44.5467 397.488 44.12C397.968 43.64 398.715 43.4 399.728 43.4H436.848C437.861 43.4 438.581 43.64 439.008 44.12C439.488 44.5467 439.728 45.2667 439.728 46.28V55.64C439.728 56.6533 439.488 57.4 439.008 57.88C438.581 58.3067 437.861 58.52 436.848 58.52H414.768V64.68H430.368C431.381 64.68 432.101 64.92 432.528 65.4C433.008 65.8267 433.248 66.5467 433.248 67.56V76.12C433.248 77.1333 433.008 77.88 432.528 78.36C432.101 78.7867 431.381 79 430.368 79H414.768V85.88H436.848C437.861 85.88 438.581 86.12 439.008 86.6C439.488 87.0267 439.728 87.7467 439.728 88.76V98.12C439.728 99.1333 439.488 99.88 439.008 100.36C438.581 100.787 437.861 101 436.848 101Z" fill="white"/>
<path d="M466.97 77H454.01C452.997 77 452.25 76.7867 451.77 76.36C451.343 75.88 451.13 75.1333 451.13 74.12V34.84H439.37C438.357 34.84 437.61 34.6267 437.13 34.2C436.703 33.72 436.49 32.9733 436.49 31.96V22.28C436.49 21.2667 436.703 20.5467 437.13 20.12C437.61 19.64 438.357 19.4 439.37 19.4H481.61C482.623 19.4 483.343 19.64 483.77 20.12C484.25 20.5467 484.49 21.2667 484.49 22.28V31.96C484.49 32.9733 484.25 33.72 483.77 34.2C483.343 34.6267 482.623 34.84 481.61 34.84H469.85V74.12C469.85 75.1333 469.61 75.88 469.13 76.36C468.703 76.7867 467.983 77 466.97 77Z" fill="#E2147E"/>
<path d="M466.97 77H454.01C452.997 77 452.25 76.7867 451.77 76.36C451.343 75.88 451.13 75.1333 451.13 74.12V34.84H439.37C438.357 34.84 437.61 34.6267 437.13 34.2C436.703 33.72 436.49 32.9733 436.49 31.96V22.28C436.49 21.2667 436.703 20.5467 437.13 20.12C437.61 19.64 438.357 19.4 439.37 19.4H481.61C482.623 19.4 483.343 19.64 483.77 20.12C484.25 20.5467 484.49 21.2667 484.49 22.28V31.96C484.49 32.9733 484.25 33.72 483.77 34.2C483.343 34.6267 482.623 34.84 481.61 34.84H469.85V74.12C469.85 75.1333 469.61 75.88 469.13 76.36C468.703 76.7867 467.983 77 466.97 77Z" fill="white"/>
<path d="M509.724 101H484.444C483.431 101 482.684 100.787 482.204 100.36C481.778 99.88 481.564 99.1333 481.564 98.12V88.76C481.564 87.7467 481.778 87.0267 482.204 86.6C482.684 86.12 483.431 85.88 484.444 85.88H505.964C506.658 85.88 507.164 85.6667 507.484 85.24C507.858 84.76 508.044 84.2 508.044 83.56C508.044 82.6533 507.858 81.9867 507.484 81.56C507.164 81.1333 506.658 80.8933 505.964 80.84L493.964 79.16C490.231 78.6267 487.218 77.4 484.924 75.48C482.684 73.56 481.564 70.36 481.564 65.88V57.48C481.564 52.9467 483.031 49.48 485.964 47.08C488.898 44.6267 492.951 43.4 498.124 43.4H520.524C521.538 43.4 522.258 43.64 522.684 44.12C523.164 44.5467 523.404 45.2667 523.404 46.28V55.8C523.404 56.8133 523.164 57.56 522.684 58.04C522.258 58.4667 521.538 58.68 520.524 58.68H501.884C501.191 58.68 500.658 58.92 500.284 59.4C499.911 59.8267 499.724 60.3867 499.724 61.08C499.724 61.7733 499.911 62.36 500.284 62.84C500.658 63.32 501.191 63.5867 501.884 63.64L513.804 65.24C517.538 65.7733 520.551 67 522.844 68.92C525.138 70.84 526.284 74.04 526.284 78.52V86.92C526.284 91.4533 524.791 94.9467 521.804 97.4C518.871 99.8 514.844 101 509.724 101Z" fill="#E2147E"/>
<path d="M509.724 101H484.444C483.431 101 482.684 100.787 482.204 100.36C481.778 99.88 481.564 99.1333 481.564 98.12V88.76C481.564 87.7467 481.778 87.0267 482.204 86.6C482.684 86.12 483.431 85.88 484.444 85.88H505.964C506.658 85.88 507.164 85.6667 507.484 85.24C507.858 84.76 508.044 84.2 508.044 83.56C508.044 82.6533 507.858 81.9867 507.484 81.56C507.164 81.1333 506.658 80.8933 505.964 80.84L493.964 79.16C490.231 78.6267 487.218 77.4 484.924 75.48C482.684 73.56 481.564 70.36 481.564 65.88V57.48C481.564 52.9467 483.031 49.48 485.964 47.08C488.898 44.6267 492.951 43.4 498.124 43.4H520.524C521.538 43.4 522.258 43.64 522.684 44.12C523.164 44.5467 523.404 45.2667 523.404 46.28V55.8C523.404 56.8133 523.164 57.56 522.684 58.04C522.258 58.4667 521.538 58.68 520.524 58.68H501.884C501.191 58.68 500.658 58.92 500.284 59.4C499.911 59.8267 499.724 60.3867 499.724 61.08C499.724 61.7733 499.911 62.36 500.284 62.84C500.658 63.32 501.191 63.5867 501.884 63.64L513.804 65.24C517.538 65.7733 520.551 67 522.844 68.92C525.138 70.84 526.284 74.04 526.284 78.52V86.92C526.284 91.4533 524.791 94.9467 521.804 97.4C518.871 99.8 514.844 101 509.724 101Z" fill="white"/>
<path d="M20.9563 176H8.55625C7.54292 176 6.79625 175.787 6.31625 175.36C5.88958 174.88 5.67625 174.133 5.67625 173.12V121.28C5.67625 120.267 5.88958 119.547 6.31625 119.12C6.79625 118.64 7.54292 118.4 8.55625 118.4H20.9563C21.9696 118.4 22.6896 118.64 23.1163 119.12C23.5963 119.547 23.8363 120.267 23.8363 121.28V139.68H27.0363L35.2763 121.04C35.6496 120.08 36.1563 119.413 36.7963 119.04C37.4363 118.613 38.2629 118.4 39.2763 118.4H51.5963C52.5029 118.4 53.1163 118.64 53.4363 119.12C53.7563 119.547 53.7296 120.187 53.3563 121.04L45.1963 139.68C48.1829 139.84 50.5563 140.907 52.3163 142.88C54.1296 144.8 55.0363 147.36 55.0363 150.56V173.12C55.0363 174.133 54.7963 174.88 54.3163 175.36C53.8896 175.787 53.1696 176 52.1563 176H39.8363C38.8229 176 38.0763 175.787 37.5963 175.36C37.1696 174.88 36.9563 174.133 36.9563 173.12V157.52C36.9563 156.667 36.7429 156 36.3163 155.52C35.8896 155.04 35.2496 154.8 34.3963 154.8H23.8363V173.12C23.8363 174.133 23.5963 174.88 23.1163 175.36C22.6896 175.787 21.9696 176 20.9563 176Z" fill="#E2147E"/>
<path d="M20.9563 176H8.55625C7.54292 176 6.79625 175.787 6.31625 175.36C5.88958 174.88 5.67625 174.133 5.67625 173.12V121.28C5.67625 120.267 5.88958 119.547 6.31625 119.12C6.79625 118.64 7.54292 118.4 8.55625 118.4H20.9563C21.9696 118.4 22.6896 118.64 23.1163 119.12C23.5963 119.547 23.8363 120.267 23.8363 121.28V139.68H27.0363L35.2763 121.04C35.6496 120.08 36.1563 119.413 36.7963 119.04C37.4363 118.613 38.2629 118.4 39.2763 118.4H51.5963C52.5029 118.4 53.1163 118.64 53.4363 119.12C53.7563 119.547 53.7296 120.187 53.3563 121.04L45.1963 139.68C48.1829 139.84 50.5563 140.907 52.3163 142.88C54.1296 144.8 55.0363 147.36 55.0363 150.56V173.12C55.0363 174.133 54.7963 174.88 54.3163 175.36C53.8896 175.787 53.1696 176 52.1563 176H39.8363C38.8229 176 38.0763 175.787 37.5963 175.36C37.1696 174.88 36.9563 174.133 36.9563 173.12V157.52C36.9563 156.667 36.7429 156 36.3163 155.52C35.8896 155.04 35.2496 154.8 34.3963 154.8H23.8363V173.12C23.8363 174.133 23.5963 174.88 23.1163 175.36C22.6896 175.787 21.9696 176 20.9563 176Z" fill="white"/>
<path d="M341.328 152.88C341.328 155.333 340.954 157.573 340.208 159.6C339.514 161.573 338.234 163.28 336.368 164.72C334.554 166.107 332.021 167.2 328.768 168C325.568 168.8 321.488 169.2 316.528 169.2C311.568 169.2 307.461 168.8 304.208 168C300.954 167.2 298.394 166.107 296.528 164.72C294.714 163.28 293.434 161.573 292.688 159.6C291.994 157.573 291.648 155.333 291.648 152.88V125.6C291.648 123.147 291.994 120.933 292.688 118.96C293.434 116.933 294.714 115.2 296.528 113.76C298.394 112.32 300.954 111.2 304.208 110.4C307.461 109.6 311.568 109.2 316.528 109.2C321.488 109.2 325.568 109.6 328.768 110.4C332.021 111.2 334.554 112.32 336.368 113.76C338.234 115.2 339.514 116.933 340.208 118.96C340.954 120.933 341.328 123.147 341.328 125.6V152.88ZM309.808 150C309.808 151.067 310.208 151.973 311.008 152.72C311.808 153.413 313.648 153.76 316.528 153.76C319.408 153.76 321.248 153.413 322.048 152.72C322.848 151.973 323.248 151.067 323.248 150V128.48C323.248 127.467 322.848 126.613 322.048 125.92C321.248 125.173 319.408 124.8 316.528 124.8C313.648 124.8 311.808 125.173 311.008 125.92C310.208 126.613 309.808 127.467 309.808 128.48V150Z" fill="#E2147E"/>
<path d="M341.328 152.88C341.328 155.333 340.954 157.573 340.208 159.6C339.514 161.573 338.234 163.28 336.368 164.72C334.554 166.107 332.021 167.2 328.768 168C325.568 168.8 321.488 169.2 316.528 169.2C311.568 169.2 307.461 168.8 304.208 168C300.954 167.2 298.394 166.107 296.528 164.72C294.714 163.28 293.434 161.573 292.688 159.6C291.994 157.573 291.648 155.333 291.648 152.88V125.6C291.648 123.147 291.994 120.933 292.688 118.96C293.434 116.933 294.714 115.2 296.528 113.76C298.394 112.32 300.954 111.2 304.208 110.4C307.461 109.6 311.568 109.2 316.528 109.2C321.488 109.2 325.568 109.6 328.768 110.4C332.021 111.2 334.554 112.32 336.368 113.76C338.234 115.2 339.514 116.933 340.208 118.96C340.954 120.933 341.328 123.147 341.328 125.6V152.88ZM309.808 150C309.808 151.067 310.208 151.973 311.008 152.72C311.808 153.413 313.648 153.76 316.528 153.76C319.408 153.76 321.248 153.413 322.048 152.72C322.848 151.973 323.248 151.067 323.248 150V128.48C323.248 127.467 322.848 126.613 322.048 125.92C321.248 125.173 319.408 124.8 316.528 124.8C313.648 124.8 311.808 125.173 311.008 125.92C310.208 126.613 309.808 127.467 309.808 128.48V150Z" fill="white"/>
<path d="M111.328 148.88C111.328 151.333 110.954 153.573 110.208 155.6C109.514 157.573 108.234 159.28 106.368 160.72C104.554 162.107 102.021 163.2 98.7678 164C95.5678 164.8 91.4878 165.2 86.5278 165.2C81.5678 165.2 77.4611 164.8 74.2078 164C70.9545 163.2 68.3945 162.107 66.5278 160.72C64.7145 159.28 63.4345 157.573 62.6878 155.6C61.9945 153.573 61.6478 151.333 61.6478 148.88V121.6C61.6478 119.147 61.9945 116.933 62.6878 114.96C63.4345 112.933 64.7145 111.2 66.5278 109.76C68.3945 108.32 70.9545 107.2 74.2078 106.4C77.4611 105.6 81.5678 105.2 86.5278 105.2C91.4878 105.2 95.5678 105.6 98.7678 106.4C102.021 107.2 104.554 108.32 106.368 109.76C108.234 111.2 109.514 112.933 110.208 114.96C110.954 116.933 111.328 119.147 111.328 121.6V148.88ZM79.8078 146C79.8078 147.067 80.2078 147.973 81.0078 148.72C81.8078 149.413 83.6478 149.76 86.5278 149.76C89.4078 149.76 91.2478 149.413 92.0478 148.72C92.8478 147.973 93.2478 147.067 93.2478 146V124.48C93.2478 123.467 92.8478 122.613 92.0478 121.92C91.2478 121.173 89.4078 120.8 86.5278 120.8C83.6478 120.8 81.8078 121.173 81.0078 121.92C80.2078 122.613 79.8078 123.467 79.8078 124.48V146Z" fill="#E2147E"/>
<path d="M111.328 148.88C111.328 151.333 110.954 153.573 110.208 155.6C109.514 157.573 108.234 159.28 106.368 160.72C104.554 162.107 102.021 163.2 98.7678 164C95.5678 164.8 91.4878 165.2 86.5278 165.2C81.5678 165.2 77.4611 164.8 74.2078 164C70.9545 163.2 68.3945 162.107 66.5278 160.72C64.7145 159.28 63.4345 157.573 62.6878 155.6C61.9945 153.573 61.6478 151.333 61.6478 148.88V121.6C61.6478 119.147 61.9945 116.933 62.6878 114.96C63.4345 112.933 64.7145 111.2 66.5278 109.76C68.3945 108.32 70.9545 107.2 74.2078 106.4C77.4611 105.6 81.5678 105.2 86.5278 105.2C91.4878 105.2 95.5678 105.6 98.7678 106.4C102.021 107.2 104.554 108.32 106.368 109.76C108.234 111.2 109.514 112.933 110.208 114.96C110.954 116.933 111.328 119.147 111.328 121.6V148.88ZM79.8078 146C79.8078 147.067 80.2078 147.973 81.0078 148.72C81.8078 149.413 83.6478 149.76 86.5278 149.76C89.4078 149.76 91.2478 149.413 92.0478 148.72C92.8478 147.973 93.2478 147.067 93.2478 146V124.48C93.2478 123.467 92.8478 122.613 92.0478 121.92C91.2478 121.173 89.4078 120.8 86.5278 120.8C83.6478 120.8 81.8078 121.173 81.0078 121.92C80.2078 122.613 79.8078 123.467 79.8078 124.48V146Z" fill="white"/>
<path d="M136.783 169H124.783C123.769 169 123.023 168.787 122.543 168.36C122.116 167.88 121.903 167.133 121.903 166.12V114.28C121.903 113.267 122.116 112.547 122.543 112.12C123.023 111.64 123.769 111.4 124.783 111.4H133.103C134.116 111.4 134.969 111.56 135.663 111.88C136.409 112.2 137.129 112.76 137.823 113.56L153.343 131.32V114.28C153.343 113.267 153.556 112.547 153.983 112.12C154.463 111.64 155.209 111.4 156.223 111.4H168.223C169.236 111.4 169.956 111.64 170.383 112.12C170.863 112.547 171.103 113.267 171.103 114.28V166.12C171.103 167.133 170.863 167.88 170.383 168.36C169.956 168.787 169.236 169 168.223 169H156.223C155.209 169 154.463 168.787 153.983 168.36C153.556 167.88 153.343 167.133 153.343 166.12V156.28L139.663 139.72V166.12C139.663 167.133 139.423 167.88 138.943 168.36C138.516 168.787 137.796 169 136.783 169Z" fill="#E2147E"/>
<path d="M136.783 169H124.783C123.769 169 123.023 168.787 122.543 168.36C122.116 167.88 121.903 167.133 121.903 166.12V114.28C121.903 113.267 122.116 112.547 122.543 112.12C123.023 111.64 123.769 111.4 124.783 111.4H133.103C134.116 111.4 134.969 111.56 135.663 111.88C136.409 112.2 137.129 112.76 137.823 113.56L153.343 131.32V114.28C153.343 113.267 153.556 112.547 153.983 112.12C154.463 111.64 155.209 111.4 156.223 111.4H168.223C169.236 111.4 169.956 111.64 170.383 112.12C170.863 112.547 171.103 113.267 171.103 114.28V166.12C171.103 167.133 170.863 167.88 170.383 168.36C169.956 168.787 169.236 169 168.223 169H156.223C155.209 169 154.463 168.787 153.983 168.36C153.556 167.88 153.343 167.133 153.343 166.12V156.28L139.663 139.72V166.12C139.663 167.133 139.423 167.88 138.943 168.36C138.516 168.787 137.796 169 136.783 169Z" fill="white"/>
<path d="M207.97 185H195.01C193.997 185 193.25 184.787 192.77 184.36C192.343 183.88 192.13 183.133 192.13 182.12V142.84H180.37C179.357 142.84 178.61 142.627 178.13 142.2C177.703 141.72 177.49 140.973 177.49 139.96V130.28C177.49 129.267 177.703 128.547 178.13 128.12C178.61 127.64 179.357 127.4 180.37 127.4H222.61C223.623 127.4 224.343 127.64 224.77 128.12C225.25 128.547 225.49 129.267 225.49 130.28V139.96C225.49 140.973 225.25 141.72 224.77 142.2C224.343 142.627 223.623 142.84 222.61 142.84H210.85V182.12C210.85 183.133 210.61 183.88 210.13 184.36C209.703 184.787 208.983 185 207.97 185Z" fill="#E2147E"/>
<path d="M207.97 185H195.01C193.997 185 193.25 184.787 192.77 184.36C192.343 183.88 192.13 183.133 192.13 182.12V142.84H180.37C179.357 142.84 178.61 142.627 178.13 142.2C177.703 141.72 177.49 140.973 177.49 139.96V130.28C177.49 129.267 177.703 128.547 178.13 128.12C178.61 127.64 179.357 127.4 180.37 127.4H222.61C223.623 127.4 224.343 127.64 224.77 128.12C225.25 128.547 225.49 129.267 225.49 130.28V139.96C225.49 140.973 225.25 141.72 224.77 142.2C224.343 142.627 223.623 142.84 222.61 142.84H210.85V182.12C210.85 183.133 210.61 183.88 210.13 184.36C209.703 184.787 208.983 185 207.97 185Z" fill="white"/>
<path d="M250.873 134.8V145.04H256.873C258.26 145.04 259.193 144.693 259.673 144C260.153 143.253 260.393 142.347 260.393 141.28V138.56C260.393 137.493 260.153 136.613 259.673 135.92C259.193 135.173 258.26 134.8 256.873 134.8H250.873ZM247.993 178H235.673C234.66 178 233.913 177.787 233.433 177.36C233.007 176.88 232.793 176.133 232.793 175.12V123.28C232.793 122.267 233.007 121.547 233.433 121.12C233.913 120.64 234.66 120.4 235.673 120.4H262.313C268.287 120.4 272.393 121.653 274.633 124.16C276.927 126.613 278.073 129.813 278.073 133.76V137.44C278.073 139.68 277.727 141.6 277.033 143.2C276.393 144.747 275.247 145.867 273.593 146.56C276.473 146.88 278.793 148.053 280.553 150.08C282.367 152.107 283.273 154.8 283.273 158.16V175.12C283.273 176.133 283.033 176.88 282.553 177.36C282.127 177.787 281.407 178 280.393 178H267.993C266.98 178 266.233 177.787 265.753 177.36C265.327 176.88 265.113 176.133 265.113 175.12V162.88C265.113 161.707 264.873 160.853 264.393 160.32C263.967 159.733 263.193 159.44 262.073 159.44H250.873V175.12C250.873 176.133 250.633 176.88 250.153 177.36C249.727 177.787 249.007 178 247.993 178Z" fill="#E2147E"/>
<path d="M250.873 134.8V145.04H256.873C258.26 145.04 259.193 144.693 259.673 144C260.153 143.253 260.393 142.347 260.393 141.28V138.56C260.393 137.493 260.153 136.613 259.673 135.92C259.193 135.173 258.26 134.8 256.873 134.8H250.873ZM247.993 178H235.673C234.66 178 233.913 177.787 233.433 177.36C233.007 176.88 232.793 176.133 232.793 175.12V123.28C232.793 122.267 233.007 121.547 233.433 121.12C233.913 120.64 234.66 120.4 235.673 120.4H262.313C268.287 120.4 272.393 121.653 274.633 124.16C276.927 126.613 278.073 129.813 278.073 133.76V137.44C278.073 139.68 277.727 141.6 277.033 143.2C276.393 144.747 275.247 145.867 273.593 146.56C276.473 146.88 278.793 148.053 280.553 150.08C282.367 152.107 283.273 154.8 283.273 158.16V175.12C283.273 176.133 283.033 176.88 282.553 177.36C282.127 177.787 281.407 178 280.393 178H267.993C266.98 178 266.233 177.787 265.753 177.36C265.327 176.88 265.113 176.133 265.113 175.12V162.88C265.113 161.707 264.873 160.853 264.393 160.32C263.967 159.733 263.193 159.44 262.073 159.44H250.873V175.12C250.873 176.133 250.633 176.88 250.153 177.36C249.727 177.787 249.007 178 247.993 178Z" fill="white"/>
<path d="M394.308 180H353.588C352.574 180 351.828 179.787 351.348 179.36C350.921 178.88 350.708 178.133 350.708 177.12V125.28C350.708 124.267 350.921 123.547 351.348 123.12C351.828 122.64 352.574 122.4 353.588 122.4H365.988C367.001 122.4 367.721 122.64 368.148 123.12C368.628 123.547 368.868 124.267 368.868 125.28V164.88H379.828V151.92C379.828 150.907 380.041 150.187 380.468 149.76C380.948 149.28 381.694 149.04 382.708 149.04H394.308C395.321 149.04 396.041 149.28 396.468 149.76C396.948 150.187 397.188 150.907 397.188 151.92V177.12C397.188 178.133 396.948 178.88 396.468 179.36C396.041 179.787 395.321 180 394.308 180Z" fill="#E2147E"/>
<path d="M394.308 180H353.588C352.574 180 351.828 179.787 351.348 179.36C350.921 178.88 350.708 178.133 350.708 177.12V125.28C350.708 124.267 350.921 123.547 351.348 123.12C351.828 122.64 352.574 122.4 353.588 122.4H365.988C367.001 122.4 367.721 122.64 368.148 123.12C368.628 123.547 368.868 124.267 368.868 125.28V164.88H379.828V151.92C379.828 150.907 380.041 150.187 380.468 149.76C380.948 149.28 381.694 149.04 382.708 149.04H394.308C395.321 149.04 396.041 149.28 396.468 149.76C396.948 150.187 397.188 150.907 397.188 151.92V177.12C397.188 178.133 396.948 178.88 396.468 179.36C396.041 179.787 395.321 180 394.308 180Z" fill="white"/>
<path d="M449.308 176H408.588C407.574 176 406.828 175.787 406.348 175.36C405.921 174.88 405.708 174.133 405.708 173.12V121.28C405.708 120.267 405.921 119.547 406.348 119.12C406.828 118.64 407.574 118.4 408.588 118.4H420.988C422.001 118.4 422.721 118.64 423.148 119.12C423.628 119.547 423.868 120.267 423.868 121.28V160.88H434.828V147.92C434.828 146.907 435.041 146.187 435.468 145.76C435.948 145.28 436.694 145.04 437.708 145.04H449.308C450.321 145.04 451.041 145.28 451.468 145.76C451.948 146.187 452.188 146.907 452.188 147.92V173.12C452.188 174.133 451.948 174.88 451.468 175.36C451.041 175.787 450.321 176 449.308 176Z" fill="#E2147E"/>
<path d="M449.308 176H408.588C407.574 176 406.828 175.787 406.348 175.36C405.921 174.88 405.708 174.133 405.708 173.12V121.28C405.708 120.267 405.921 119.547 406.348 119.12C406.828 118.64 407.574 118.4 408.588 118.4H420.988C422.001 118.4 422.721 118.64 423.148 119.12C423.628 119.547 423.868 120.267 423.868 121.28V160.88H434.828V147.92C434.828 146.907 435.041 146.187 435.468 145.76C435.948 145.28 436.694 145.04 437.708 145.04H449.308C450.321 145.04 451.041 145.28 451.468 145.76C451.948 146.187 452.188 146.907 452.188 147.92V173.12C452.188 174.133 451.948 174.88 451.468 175.36C451.041 175.787 450.321 176 449.308 176Z" fill="white"/>
</svg>
