<svg width="128" height="128" viewBox="0 0 128 128" fill="none" xmlns="http://www.w3.org/2000/svg">
<path d="M37.4796 23.4C37.4796 23.4 47.2396 18.33 63.7596 18.33C80.2796 18.33 91.7297 22.46 91.7297 22.46C91.7297 22.46 93.6096 17.96 96.4196 16.45C99.2296 14.94 104.12 14.2 108.25 15.89C112.38 17.58 122.7 28.56 123.27 29.5C123.83 30.44 124.23 31.8 124.04 32.17C123.85 32.55 113.97 48.29 113.97 48.29C113.97 48.29 115.47 51.93 116.93 57.02C117.55 59.2 121.76 70.51 119.51 84.03C117.26 97.55 107.54 111.99 90.2297 116.69C72.9597 121.38 46.1196 122.32 29.2296 113.87C12.8496 105.69 7.44965 93.04 6.69965 79.9C5.94965 66.76 11.1996 55.76 11.1996 55.76L17.5796 47.06C17.5796 47.06 4.17965 33.8 3.80965 32.68C3.42965 31.55 5.00965 29.42 10.2596 24.91C15.5096 20.4 20.3696 16.39 23.5196 15.36C26.7596 14.3 30.3496 14.77 32.5996 16.84C34.8496 18.9 37.4796 23.4 37.4796 23.4V23.4Z" fill="#FFD3B0"/>
<path d="M93.5102 25C91.6402 26.09 93.8102 30.11 94.8202 32.51C96.6002 36.73 99.4302 45.09 104.11 50.34C109.55 56.44 116.5 55.78 116.5 55.78C116.5 55.78 115.09 50.99 114.53 49.87C114.62 49.03 118.57 42.83 119.69 40.67C120.82 38.51 123.16 34.85 123.63 32.97C124.1 31.09 122.97 31.66 122.32 31.94C121.66 32.22 108.43 40.11 108.43 40.11C108.43 40.11 105.24 41.33 104.21 40.2C103.18 39.07 101.3 33.91 99.8902 30.53C99.0902 28.61 96.8902 23.03 93.5102 25V25Z" fill="#FFA5A8"/>
<path d="M104.12 40.69C104.68 42.38 107.01 42.59 109.33 42.03C112.73 41.21 114.85 38.91 117 37.31C119.96 35.13 122.91 34.49 123.62 33.72C124.32 32.95 124.61 30.76 122.99 31.19C121.37 31.61 119.33 31.82 116.02 34.01C113.17 35.89 110.8 37.92 108.77 38.94C106.93 39.85 103.56 39.02 104.12 40.69Z" fill="#FD7E89"/>
<path d="M25.0003 39.5C25.3503 39.08 28.9403 30.49 29.7203 28.8C30.4903 27.11 32.6803 22.46 35.1403 24.51C37.6003 26.56 34.5103 34.51 31.3403 40.07C28.1703 45.63 24.6503 50.77 22.2603 52.95C20.8903 54.2 18.3203 55.91 15.4303 56.19C13.7403 56.36 10.8503 56.4 10.8503 56.4C10.8503 56.4 11.6203 54.15 12.5403 52.25C12.8503 51.6 13.6003 50.07 13.8803 49.43C13.8803 48.94 11.7003 45.84 10.2203 43.59C9.4003 42.34 4.3003 34.01 4.2303 33.02C4.1603 32.03 5.43031 32.46 6.76031 32.74C8.09031 33.02 16.9703 37.39 16.9703 37.39L25.0003 39.5Z" fill="#FFA5A8"/>
<path d="M15.4901 38.93C18.4601 40.53 20.0101 41.68 22.7401 41.32C24.9201 41.04 25.7701 39.91 25.4101 39.07C25.0601 38.23 23.6501 38.51 22.6601 38.3C20.3801 37.81 18.5401 36.41 16.7501 35.48C14.2901 34.21 11.6801 32.52 8.73012 31.96C6.24012 31.49 3.24013 31.54 3.94013 33.16C4.64013 34.78 6.94012 34.56 9.15012 35.62C11.3401 36.68 13.6601 37.95 15.4901 38.93V38.93Z" fill="#FD7C88"/>
<path d="M36.6103 88.28C35.0003 90.01 36.3303 92.23 38.7203 93.98C41.6103 96.09 46.8903 100.17 62.4403 100.17C78.8403 100.17 84.3703 94.96 86.2703 93.55C87.9803 92.28 90.0403 90.1 88.4203 88.34C86.8003 86.58 82.6503 89.68 81.5203 90.31C80.3903 90.94 71.7403 95.45 62.8003 95.31C55.5503 95.2 48.0203 92.78 45.7703 91.86C41.6103 90.18 38.5103 86.24 36.6103 88.28Z" fill="#312F2C"/>
<path d="M63.3599 69.41C55.5499 69.03 43.9999 74.62 44.1399 84.69C44.2799 94.76 53.8499 96.57 62.9999 96.8C71.5899 97.01 81.7899 93.42 81.7199 84.41C81.6699 76.23 74.8299 69.98 63.3599 69.41Z" fill="#FD7E84"/>
<path d="M95.8102 69.06C95.8102 73.26 93.5602 77.15 89.7902 77.08C86.2302 77.01 83.7002 73.68 83.7002 69.48C83.7002 65.28 86.5802 61.88 89.7902 61.88C93.0002 61.88 95.8102 64.86 95.8102 69.06Z" fill="#2C2F31"/>
<path d="M42.6696 69.34C42.6696 73.54 40.5596 76.87 36.7896 76.94C32.9496 77.01 30.5596 73.75 30.5596 69.55C30.5596 65.35 33.5496 61.95 36.7496 61.95C39.9496 61.95 42.6696 65.14 42.6696 69.34V69.34Z" fill="#2C2F31"/>
<path d="M73.8496 83.69C73.8496 87.89 72.8396 91.73 70.3296 91.78C67.3696 91.85 66.8096 88.09 66.8096 83.9C66.8096 79.71 67.7996 76.58 70.3296 76.65C72.9196 76.72 73.8496 79.49 73.8496 83.69V83.69Z" fill="#2C2F31"/>
<path d="M59.6904 83.34C59.6904 87.54 58.6804 91.38 56.1704 91.43C53.2104 91.5 52.6504 87.74 52.6504 83.55C52.6504 79.36 53.6404 76.23 56.1704 76.3C58.7604 76.37 59.6904 79.14 59.6904 83.34V83.34Z" fill="#2C2F31"/>
</svg>
